<?xml version="1.0" encoding="utf-8"?>
<!-- Generator: Adobe Illustrator 24.0.0, SVG Export Plug-In . SVG Version: 6.00 Build 0)  -->
<svg version="1.1" id="Layer_1" xmlns="http://www.w3.org/2000/svg" xmlns:xlink="http://www.w3.org/1999/xlink" x="0px" y="0px"
	 viewBox="0 0 100 100" style="enable-background:new 0 0 100 100;" xml:space="preserve">
<style type="text/css">
	.st0{fill:#656E72;}
</style>
<g>
	<path class="st0" d="M41.71,53.18h-5.41c-0.5,0-0.91-0.41-0.91-0.91v-4.54c0-0.5,0.41-0.91,0.91-0.91h5.41
		c0.5,0,0.91,0.41,0.91,0.91v4.54C42.62,52.77,42.21,53.18,41.71,53.18z"/>
	<path class="st0" d="M41.71,62.82h-5.41c-0.5,0-0.91-0.41-0.91-0.91v-4.54c0-0.5,0.41-0.91,0.91-0.91h5.41
		c0.5,0,0.91,0.41,0.91,0.91v4.54C42.62,62.41,42.21,62.82,41.71,62.82z"/>
	<path class="st0" d="M52.71,53.18h-5.41c-0.5,0-0.91-0.41-0.91-0.91v-4.54c0-0.5,0.41-0.91,0.91-0.91h5.41
		c0.5,0,0.91,0.41,0.91,0.91v4.54C53.62,52.77,53.21,53.18,52.71,53.18z"/>
	<path class="st0" d="M52.71,62.82h-5.41c-0.5,0-0.91-0.41-0.91-0.91v-4.54c0-0.5,0.41-0.91,0.91-0.91h5.41
		c0.5,0,0.91,0.41,0.91,0.91v4.54C53.62,62.41,53.21,62.82,52.71,62.82z"/>
	<g>
		<path class="st0" d="M41.71,43.54h-5.41c-0.5,0-0.91-0.41-0.91-0.91v-4.54c0-0.5,0.41-0.91,0.91-0.91h5.41
			c0.5,0,0.91,0.41,0.91,0.91v4.54C42.62,43.13,42.21,43.54,41.71,43.54z"/>
		<path class="st0" d="M52.71,43.54h-5.41c-0.5,0-0.91-0.41-0.91-0.91v-4.54c0-0.5,0.41-0.91,0.91-0.91h5.41
			c0.5,0,0.91,0.41,0.91,0.91v4.54C53.62,43.13,53.21,43.54,52.71,43.54z"/>
		<path class="st0" d="M63.71,43.54h-5.41c-0.5,0-0.91-0.41-0.91-0.91v-4.54c0-0.5,0.41-0.91,0.91-0.91h5.41
			c0.5,0,0.91,0.41,0.91,0.91v4.54C64.62,43.13,64.21,43.54,63.71,43.54z"/>
		<path class="st0" d="M63.71,53.18h-5.41c-0.5,0-0.91-0.41-0.91-0.91v-4.54c0-0.5,0.41-0.91,0.91-0.91h5.41
			c0.5,0,0.91,0.41,0.91,0.91v4.54C64.62,52.77,64.21,53.18,63.71,53.18z"/>
		<path class="st0" d="M63.71,62.82h-5.41c-0.5,0-0.91-0.41-0.91-0.91v-4.54c0-0.5,0.41-0.91,0.91-0.91h5.41
			c0.5,0,0.91,0.41,0.91,0.91v4.54C64.62,62.41,64.21,62.82,63.71,62.82z"/>
	</g>
</g>
</svg>
