<?xml version="1.0" encoding="utf-8"?>
<!-- Generator: Adobe Illustrator 24.0.0, SVG Export Plug-In . SVG Version: 6.00 Build 0)  -->
<svg version="1.1" id="Layer_1" xmlns="http://www.w3.org/2000/svg" xmlns:xlink="http://www.w3.org/1999/xlink" x="0px" y="0px"
	 viewBox="0 0 100 100" style="enable-background:new 0 0 100 100;" xml:space="preserve">
<style type="text/css">
	.st0{fill:#656E72;}
</style>
<g>
	<g>
		<path class="st0" d="M64.59,43.54H45.93c-0.5,0-0.91-0.41-0.91-0.91v-4.54c0-0.5,0.41-0.91,0.91-0.91h18.67
			c0.5,0,0.91,0.41,0.91,0.91v4.54C65.5,43.13,65.09,43.54,64.59,43.54z"/>
		<path class="st0" d="M64.59,53.18H45.93c-0.5,0-0.91-0.41-0.91-0.91v-4.54c0-0.5,0.41-0.91,0.91-0.91h18.67
			c0.5,0,0.91,0.41,0.91,0.91v4.54C65.5,52.77,65.09,53.18,64.59,53.18z"/>
		<path class="st0" d="M64.59,62.82H45.93c-0.5,0-0.91-0.41-0.91-0.91v-4.54c0-0.5,0.41-0.91,0.91-0.91h18.67
			c0.5,0,0.91,0.41,0.91,0.91v4.54C65.5,62.41,65.09,62.82,64.59,62.82z"/>
		<path class="st0" d="M40.82,43.54h-5.41c-0.5,0-0.91-0.41-0.91-0.91v-4.54c0-0.5,0.41-0.91,0.91-0.91h5.41
			c0.5,0,0.91,0.41,0.91,0.91v4.54C41.73,43.13,41.32,43.54,40.82,43.54z"/>
		<path class="st0" d="M40.82,53.18h-5.41c-0.5,0-0.91-0.41-0.91-0.91v-4.54c0-0.5,0.41-0.91,0.91-0.91h5.41
			c0.5,0,0.91,0.41,0.91,0.91v4.54C41.73,52.77,41.32,53.18,40.82,53.18z"/>
		<path class="st0" d="M40.82,62.82h-5.41c-0.5,0-0.91-0.41-0.91-0.91v-4.54c0-0.5,0.41-0.91,0.91-0.91h5.41
			c0.5,0,0.91,0.41,0.91,0.91v4.54C41.73,62.41,41.32,62.82,40.82,62.82z"/>
	</g>
</g>
</svg>
