<?xml version="1.0" encoding="utf-8"?>
<!-- Generator: Adobe Illustrator 24.0.0, SVG Export Plug-In . SVG Version: 6.00 Build 0)  -->
<svg version="1.1" id="Layer_1" xmlns="http://www.w3.org/2000/svg" xmlns:xlink="http://www.w3.org/1999/xlink" x="0px" y="0px"
	 viewBox="0 0 100 100" style="enable-background:new 0 0 100 100;" xml:space="preserve">
<style type="text/css">
	.st0{fill:#656E72;}
</style>
<g>
	<path class="st0" d="M42.42,63.43l-3.14-1.99c-0.32-0.21-0.42-0.63-0.21-0.96l4.98-7.86c0.21-0.32,0.63-0.42,0.96-0.21l3.14,1.99
		c0.32,0.21,0.42,0.63,0.21,0.96l-4.98,7.86C43.18,63.54,42.75,63.63,42.42,63.43z"/>
	<g>
		<g>
			<path class="st0" d="M54.53,48.8l-0.56,0.88c-0.12,0.19-0.38,0.25-0.57,0.13l-6.48-4.11c-0.19-0.12-0.25-0.38-0.13-0.57
				l0.56-0.88c0.12-0.19,0.38-0.25,0.57-0.13l6.48,4.11C54.59,48.35,54.65,48.6,54.53,48.8z"/>
		</g>
		<g>
			<path class="st0" d="M48.83,50.83l-0.88-0.56c-0.19-0.12-0.25-0.38-0.13-0.57l4.11-6.48c0.12-0.19,0.38-0.25,0.57-0.13l0.88,0.56
				c0.19,0.12,0.25,0.38,0.13,0.57L49.4,50.7C49.28,50.9,49.02,50.95,48.83,50.83z"/>
		</g>
	</g>
	<path class="st0" d="M54.25,41.3c2.94,1.86,3.81,5.77,1.95,8.71c-1.86,2.94-5.77,3.81-8.71,1.95c-2.94-1.86-3.81-5.77-1.95-8.71
		C47.41,40.31,51.32,39.43,54.25,41.3 M56.32,38.05c-4.74-3-11.02-1.6-14.02,3.14c-3,4.74-1.6,11.02,3.14,14.02
		c4.74,3,11.02,1.6,14.02-3.14S61.06,41.05,56.32,38.05L56.32,38.05z"/>
</g>
</svg>
