<?xml version="1.0" encoding="utf-8"?>
<!-- Generator: Adobe Illustrator 24.0.0, SVG Export Plug-In . SVG Version: 6.00 Build 0)  -->
<svg version="1.1" id="Layer_1" xmlns="http://www.w3.org/2000/svg" xmlns:xlink="http://www.w3.org/1999/xlink" x="0px" y="0px"
	 viewBox="0 0 100 100" style="enable-background:new 0 0 100 100;" xml:space="preserve">
<style type="text/css">
	.st0{fill:#656E72;}
</style>
<g>
	<path class="st0" d="M41.56,44.12c0-2.38,0-4.77,0-7.15c0-0.4,0-0.38,0.4-0.41c1.02-0.06,2.04-0.01,3.06-0.01c1.01,0,2.02,0,3.03,0
		c1.06,0,2.13,0.04,3.19-0.01c0.67-0.03,1.34,0.08,2.01,0.01c0.11-0.01,0.18,0.05,0.25,0.12c1.6,1.6,3.2,3.2,4.8,4.8
		c0.11,0.11,0.13,0.23,0.13,0.38c0,3.07,0,6.15,0,9.22c0,0.63-0.05,0.55,0.57,0.56c0.26,0,0.52,0.01,0.78,0.03
		c0.2,0.01,0.27-0.08,0.25-0.27c-0.09-0.89,0.05-1.78-0.02-2.67c-0.04-0.46,0.01-0.48,0.46-0.43c0.33,0.03,0.66-0.01,0.99,0.05
		c1.13,0.23,1.92,1.22,1.97,2.37c0.04,0.98,0,1.95,0.01,2.93c0.01,1,0,2.01,0,3.01c0,1.05-0.04,2.11,0.01,3.16
		c0.03,0.6,0.04,1.21-0.11,1.8c-0.27,1.07-1.23,1.79-2.34,1.83c-0.97,0.04-1.94,0-2.9,0.01c-1,0.01-2,0.02-3.01,0
		c-1.06-0.03-2.13,0.01-3.19,0.02c-0.39,0-0.79-0.04-1.18-0.02c-1.03,0.06-2.06,0.01-3.09,0.01c-1.01,0-2.02,0-3.03,0
		c-1.06,0-2.13-0.03-3.19,0.01c-0.83,0.03-1.66,0.03-2.48-0.01c-1.62-0.08-2.54-1.58-2.38-2.75c0.01-0.09,0.02-0.19,0.01-0.29
		c-0.07-1.04-0.01-2.08-0.01-3.11c0-1.01,0-2.02,0-3.03c0-1.06,0.04-2.13-0.01-3.19c-0.09-1.71,1.26-2.97,2.96-2.78
		c0.46,0.05,0.44,0.05,0.47,0.51c0.05,0.73-0.01,1.47,0,2.2c0,0.13,0.02,0.26,0.03,0.39c0,0.16,0.08,0.23,0.24,0.24
		c0.35,0,0.7,0.01,1.05,0.03c0.22,0.01,0.29-0.06,0.29-0.28c-0.01-1.41,0-2.81,0-4.22C41.56,46.14,41.56,45.13,41.56,44.12z
		 M51.62,40.83C51.62,40.83,51.61,40.83,51.62,40.83c0-0.75-0.01-1.5,0-2.25c0-0.19-0.07-0.27-0.26-0.27
		c-0.32,0-0.65-0.03-0.97-0.03c-1.11,0.01-2.21,0.03-3.32,0.03c-1.05,0-2.11-0.02-3.16-0.03c-0.55,0-0.59,0.04-0.59,0.59
		c0.01,0.92,0.01,1.83,0,2.75c0,0.36,0.04,0.71,0.02,1.07c-0.06,1.06-0.01,2.13-0.01,3.19c0,1.01,0.01,2.02,0,3.03
		c-0.01,0.83,0.09,1.66-0.01,2.48c-0.02,0.18,0.05,0.27,0.24,0.25c0.7-0.08,1.4,0.04,2.09,0c0.99-0.06,1.99,0.03,2.98-0.02
		c0.42-0.02,0.85,0.03,1.28,0.02c1.01-0.01,2.02-0.05,3.03-0.02c1.06,0.03,2.11-0.04,3.17,0.02c0.11,0.01,0.23-0.02,0.34-0.03
		c0.14-0.01,0.21-0.07,0.21-0.21c0.01-0.13,0.03-0.26,0.03-0.39c-0.01-0.51-0.03-1.03-0.03-1.54c0-0.42,0.04-0.84,0.02-1.26
		c-0.05-1.01,0.02-2.02-0.01-3.03c-0.01-0.39,0.03-0.78,0.02-1.18c-0.03-0.7-0.04-0.71-0.74-0.7c-1.33,0.01-2.67,0.03-4,0.01
		c-0.26,0-0.32-0.1-0.32-0.34C51.62,42.26,51.62,41.54,51.62,40.83z M60,59.03c0.01,0,0.01,0,0.02,0c0-0.11-0.02-0.23,0-0.34
		c0.05-0.24-0.04-0.32-0.27-0.3c-0.72,0.08-1.45-0.01-2.17,0c-0.37,0.01-0.73,0.04-1.1,0.02c-1.06-0.05-2.11-0.02-3.16-0.01
		c-0.99,0-1.99-0.05-2.98,0.01c-0.42,0.02-0.84-0.04-1.26-0.02c-1.01,0.05-2.02,0.01-3.03,0.01c-1.05,0-2.09,0.04-3.14-0.01
		c-0.38-0.02-0.77,0.05-1.15,0.02c-0.52-0.05-1.03-0.01-1.54,0.01c-0.17,0.01-0.24,0.09-0.24,0.24c0,0.35-0.01,0.7,0.01,1.05
		c0.02,0.21,0.1,0.27,0.31,0.29c0.71,0.06,1.41-0.04,2.12,0c1.03,0.06,2.06-0.04,3.09,0.02c0.39,0.02,0.78-0.02,1.18-0.02
		c1.06,0,2.13,0.05,3.19,0.02c1.01-0.02,2.02-0.01,3.03-0.01c1.03,0,2.06-0.04,3.09,0.01c0.37,0.02,0.75-0.05,1.12-0.02
		c0.87,0.07,1.74-0.06,2.62,0.02c0.31,0.03,0.34-0.03,0.32-0.34C60.02,59.47,60.01,59.25,60,59.03z M41.55,54.16
		C41.56,54.16,41.56,54.16,41.55,54.16c0-0.17,0-0.35,0.01-0.52c0.01-0.21-0.07-0.27-0.27-0.27c-0.7,0.01-1.39,0.07-2.09,0.01
		c-0.21-0.02-0.42,0-0.63,0c-0.13,0-0.25,0.04-0.25,0.2c-0.01,0.42-0.02,0.83-0.04,1.25c0,0.12,0.05,0.18,0.17,0.17
		c0.94-0.05,1.88,0.04,2.82-0.02c0.22-0.01,0.3-0.09,0.28-0.3C41.54,54.51,41.55,54.33,41.55,54.16z"/>
	<path class="st0" d="M44.91,45.8c0-0.17,0-0.33,0-0.5c0-0.38,0.01-0.39,0.4-0.39c0.24,0,0.49,0.04,0.73,0.03
		c1.05-0.06,2.09-0.01,3.14-0.01c1.01,0,2.02-0.03,3.03,0.01c0.84,0.03,1.69-0.04,2.54,0c0.25,0.01,0.35,0.08,0.34,0.33
		c-0.02,0.37-0.01,0.75-0.01,1.13c0,0.18-0.05,0.28-0.26,0.27c-0.61-0.02-1.22,0.03-1.83,0.01c-1.06-0.03-2.13,0.01-3.19,0.02
		c-0.41,0-0.82-0.04-1.23-0.02c-1.1,0.05-2.2-0.04-3.3,0.02c-0.35,0.02-0.37-0.02-0.38-0.36C44.91,46.15,44.91,45.98,44.91,45.8
		C44.91,45.8,44.91,45.8,44.91,45.8z"/>
	<path class="st0" d="M55.09,49.16c0,0.2-0.01,0.4,0,0.6c0.01,0.2-0.08,0.29-0.28,0.28c-0.29-0.01-0.58-0.04-0.86-0.03
		c-1.05,0.06-2.09,0.01-3.14,0.01c-1.01,0-2.02,0.03-3.03-0.01c-0.84-0.03-1.69,0.04-2.54,0c-0.25-0.01-0.34-0.08-0.33-0.33
		c0.01-0.37,0.01-0.75,0-1.13c-0.01-0.21,0.08-0.31,0.29-0.3c0.3,0.01,0.61,0.04,0.91,0.03c1.03-0.06,2.06-0.01,3.09-0.01
		c1.01,0,2.02-0.03,3.03,0.01c0.84,0.03,1.69-0.04,2.54,0c0.24,0.01,0.33,0.08,0.32,0.32C55.07,48.79,55.08,48.98,55.09,49.16
		C55.08,49.16,55.09,49.16,55.09,49.16z"/>
	<path class="st0" d="M44.91,42.46c0-0.21,0-0.42,0-0.63c0-0.16,0.06-0.24,0.23-0.24c0.61,0.02,1.22-0.07,1.83-0.01
		c0.39,0.04,0.78-0.01,1.17-0.02c0.56-0.01,1.11,0.02,1.67,0.02c0.18,0,0.22,0.07,0.21,0.24c-0.02,0.39-0.03,0.78,0.02,1.17
		c0.03,0.22-0.06,0.31-0.29,0.31c-0.7-0.02-1.41,0.04-2.12,0.01c-0.79-0.04-1.58,0.04-2.38-0.01c-0.34-0.02-0.34-0.01-0.35-0.36
		C44.91,42.79,44.91,42.62,44.91,42.46z"/>
</g>
</svg>
