<?xml version="1.0" encoding="utf-8"?>
<!-- Generator: Adobe Illustrator 24.0.0, SVG Export Plug-In . SVG Version: 6.00 Build 0)  -->
<svg version="1.1" id="Layer_1" xmlns="http://www.w3.org/2000/svg" xmlns:xlink="http://www.w3.org/1999/xlink" x="0px" y="0px"
	 viewBox="0 0 100 100" style="enable-background:new 0 0 100 100;" xml:space="preserve">
<style type="text/css">
	.st0{fill:#656E72;}
</style>
<g>
	<path class="st0" d="M58.46,50.03c0,3.33,0,6.66,0,9.99c0,0.55-0.14,1.04-0.57,1.41c-0.64,0.56-1.51,0.58-2.16,0.04
		c-1.71-1.41-3.42-2.83-5.12-4.25c-0.97-0.81-1.94-1.61-2.91-2.42c-0.12-0.1-0.25-0.12-0.4-0.12c-1.33,0-2.65-0.02-3.98,0.01
		c-0.99,0.02-1.78-0.77-1.77-1.75c0.03-1.95,0.03-3.89,0-5.84c-0.02-0.99,0.78-1.77,1.77-1.75c1.31,0.02,2.62,0,3.93,0.01
		c0.21,0,0.37-0.06,0.52-0.19c2.65-2.2,5.29-4.4,7.95-6.59c0.52-0.43,1.11-0.54,1.74-0.26c0.67,0.29,0.97,0.84,1.01,1.55
		c0.01,0.12,0,0.24,0,0.36C58.46,43.48,58.46,46.75,58.46,50.03z"/>
</g>
</svg>
