<?xml version="1.0" encoding="utf-8"?>
<!-- Generator: Adobe Illustrator 24.0.0, SVG Export Plug-In . SVG Version: 6.00 Build 0)  -->
<svg version="1.1" id="Layer_1" xmlns="http://www.w3.org/2000/svg" xmlns:xlink="http://www.w3.org/1999/xlink" x="0px" y="0px"
	 viewBox="0 0 100 100" style="enable-background:new 0 0 100 100;" xml:space="preserve">
<style type="text/css">
	.st0{fill:#656E72;}
</style>
<g>
	<path class="st0" d="M57.52,63.54c-2.85-0.01-5.18-2.24-5.29-5.09c0-0.01,0-0.02,0-0.03c0.21-0.67-0.21-0.92-0.71-1.21
		c-1.67-0.97-3.32-1.98-4.97-2.99C46.2,54,45.97,54,45.62,54.26c-3.14,2.4-7.86,0.41-8.37-3.51c-0.43-3.24,2.11-6.11,5.36-6.04
		c1.17,0.03,2.23,0.4,3.15,1.14c0.24,0.19,0.42,0.18,0.66,0.03c1.87-1.13,3.75-2.26,5.63-3.39c0.15-0.09,0.23-0.2,0.22-0.39
		c-0.12-2.22,0.79-3.91,2.71-4.97c3.26-1.8,7.21,0.23,7.74,3.93c0.4,2.8-1.66,5.51-4.47,5.88c-1.73,0.23-3.22-0.26-4.47-1.47
		c-0.2-0.19-0.35-0.21-0.58-0.07c-1.76,1.06-3.51,2.11-5.28,3.15c-0.22,0.13-0.29,0.26-0.23,0.51c0.15,0.62,0.14,1.26,0,1.88
		c-0.06,0.26,0.01,0.4,0.24,0.54c1.77,1.05,3.54,2.11,5.31,3.17c0.21,0.13,0.33,0.12,0.51-0.06c1.51-1.52,3.33-2,5.35-1.36
		c2.05,0.65,3.3,2.11,3.62,4.25c0.44,2.97-1.55,5.59-4.52,6.02C57.99,63.54,57.75,63.53,57.52,63.54z"/>
</g>
</svg>
