<?xml version="1.0" encoding="utf-8"?>
<!-- Generator: Adobe Illustrator 24.0.0, SVG Export Plug-In . SVG Version: 6.00 Build 0)  -->
<svg version="1.1" id="Layer_1" xmlns="http://www.w3.org/2000/svg" xmlns:xlink="http://www.w3.org/1999/xlink" x="0px" y="0px"
	 viewBox="0 0 100 100" style="enable-background:new 0 0 100 100;" xml:space="preserve">
<style type="text/css">
	.st0{fill:#656E72;}
</style>
<g>
	<g>
		<path class="st0" d="M55.05,47.28l-2.33-2.33c-0.31-0.31-0.31-0.81,0-1.11l4.63-4.63c0.31-0.31,0.81-0.31,1.11,0l2.33,2.33
			c0.31,0.31,0.31,0.81,0,1.11l-4.63,4.63C55.86,47.59,55.36,47.59,55.05,47.28z"/>
		<path class="st0" d="M61.17,44.22l-5.39-5.39c-0.49-0.49-0.18-1.32,0.51-1.38L62.13,37c0.49-0.04,0.91,0.37,0.87,0.87l-0.45,5.84
			C62.5,44.4,61.66,44.71,61.17,44.22z"/>
	</g>
	<g>
		<path class="st0" d="M44.95,52.72l2.33,2.33c0.31,0.31,0.31,0.81,0,1.11l-4.63,4.63c-0.31,0.31-0.81,0.31-1.11,0l-2.33-2.33
			c-0.31-0.31-0.31-0.81,0-1.11l4.63-4.63C44.14,52.41,44.64,52.41,44.95,52.72z"/>
		<path class="st0" d="M38.83,55.78l5.39,5.39c0.49,0.49,0.18,1.32-0.51,1.38L37.87,63c-0.49,0.04-0.91-0.37-0.87-0.87l0.45-5.84
			C37.5,55.6,38.34,55.29,38.83,55.78z"/>
	</g>
	<g>
		<path class="st0" d="M47.28,44.95l-2.33,2.33c-0.31,0.31-0.81,0.31-1.11,0l-4.63-4.63c-0.31-0.31-0.31-0.81,0-1.11l2.33-2.33
			c0.31-0.31,0.81-0.31,1.11,0l4.63,4.63C47.59,44.14,47.59,44.64,47.28,44.95z"/>
		<path class="st0" d="M44.22,38.83l-5.39,5.39c-0.49,0.49-1.32,0.18-1.38-0.51L37,37.87c-0.04-0.49,0.37-0.91,0.87-0.87l5.84,0.45
			C44.4,37.5,44.71,38.34,44.22,38.83z"/>
	</g>
	<g>
		<path class="st0" d="M52.72,55.05l2.33-2.33c0.31-0.31,0.81-0.31,1.11,0l4.63,4.63c0.31,0.31,0.31,0.81,0,1.11l-2.33,2.33
			c-0.31,0.31-0.81,0.31-1.11,0l-4.63-4.63C52.41,55.86,52.41,55.36,52.72,55.05z"/>
		<path class="st0" d="M55.78,61.17l5.39-5.39c0.49-0.49,1.32-0.18,1.38,0.51L63,62.13c0.04,0.49-0.37,0.91-0.87,0.87l-5.84-0.45
			C55.6,62.5,55.29,61.66,55.78,61.17z"/>
	</g>
</g>
</svg>
