<?xml version="1.0" encoding="utf-8"?>
<!-- Generator: Adobe Illustrator 24.0.0, SVG Export Plug-In . SVG Version: 6.00 Build 0)  -->
<svg version="1.1" id="Layer_1" xmlns="http://www.w3.org/2000/svg" xmlns:xlink="http://www.w3.org/1999/xlink" x="0px" y="0px"
	 viewBox="0 0 100 100" style="enable-background:new 0 0 100 100;" xml:space="preserve">
<style type="text/css">
	.st0{fill:#656E72;}
</style>
<g>
	<path class="st0" d="M50.17,50.19c0,3.33,0,6.66,0,9.99c0,0.55-0.14,1.04-0.57,1.41c-0.64,0.56-1.51,0.58-2.16,0.04
		c-1.71-1.41-3.42-2.83-5.12-4.25c-0.97-0.81-1.94-1.61-2.91-2.42c-0.12-0.1-0.25-0.12-0.4-0.12c-1.33,0-2.65-0.02-3.98,0.01
		c-0.99,0.02-1.78-0.77-1.77-1.75c0.03-1.95,0.03-3.89,0-5.84c-0.02-0.99,0.78-1.77,1.77-1.75c1.31,0.02,2.62,0,3.93,0.01
		c0.21,0,0.37-0.06,0.52-0.19c2.65-2.2,5.29-4.4,7.95-6.59c0.52-0.43,1.11-0.54,1.74-0.26c0.67,0.29,0.97,0.84,1.01,1.55
		c0.01,0.12,0,0.24,0,0.36C50.17,43.65,50.17,46.92,50.17,50.19z"/>
	<path class="st0" d="M66.74,50.2c-0.05,4.7-1.56,8.87-4.55,12.5c-0.67,0.82-1.76,0.86-2.53,0.12c-0.57-0.54-0.79-1.16-0.54-1.92
		c0.07-0.21,0.2-0.38,0.34-0.55c1.98-2.4,3.2-5.14,3.55-8.23c0.54-4.7-0.75-8.86-3.83-12.46c-0.64-0.75-0.61-1.67,0.08-2.39
		c0.54-0.56,1.15-0.77,1.9-0.51c0.29,0.1,0.52,0.29,0.72,0.51c2.5,2.88,4.05,6.2,4.64,9.96C66.68,48.22,66.76,49.21,66.74,50.2z"/>
	<path class="st0" d="M59.45,50.15c-0.02,2.65-0.79,5.06-2.35,7.21c-0.49,0.68-1.17,0.93-1.89,0.71c-0.73-0.22-1.36-1.01-1.38-1.75
		c-0.01-0.37,0.1-0.72,0.32-1.02c1.21-1.65,1.78-3.5,1.69-5.54c-0.08-1.81-0.67-3.45-1.79-4.88c-0.35-0.44-0.59-0.91-0.47-1.49
		c0.16-0.76,0.65-1.26,1.36-1.5c0.68-0.23,1.29-0.01,1.75,0.54c1.18,1.41,1.97,3.02,2.41,4.81C59.34,48.21,59.45,49.17,59.45,50.15z
		"/>
</g>
</svg>
